<?xml version="1.0" encoding="utf-8"?>

<!DOCTYPE svg PUBLIC "-//W3C//DTD SVG 1.1//EN" "http://www.w3.org/Graphics/SVG/1.1/DTD/svg11.dtd">
<svg version="1.1" id="Layer_1" xmlns="http://www.w3.org/2000/svg" xmlns:xlink="http://www.w3.org/1999/xlink" x="0px" y="0px"
	 viewBox="0 0 1497 504" enable-background="new 0 0 1497 504" xml:space="preserve">
<path d="M698.27,59.13c6.91-0.29,13.83-0.03,20.76-0.16c2.5099-0.07,5.04,0.04,7.49,0.69c0.47,4.07-0.97,8.09-0.2,12.15
	c2.96,0.35,5.88-0.35,8.8-0.75c1.7-0.48,3.68,0.98,3.44,2.82c-0.03,8.84-0.14,17.69-0.13,26.54c-3.37,1.2-6.78-0.2-10.18-0.36
	c-1.21,0.45-2.29,1.59-2.22,2.94c0.02,3.4,0,7.03,1.77,10.06c5.09-0.29,10.24-0.25,15.27,0.69c5.13,2.86,4.39,9.39,4.09,14.34
	c1.22,1.53,2.77,2.9,4.9,2.53c4.66-0.33,9.78,4.08,8.4,9c-1.22,3.53-4.92,5.02-7.43,7.45c-3.0601,2.96-5.71,6.3-8.35,9.64
	c-4.53,5.83-6.4,13.2-7.51,20.37c1.5,1.53,3.02,3.04,4.58,4.53c-1.19,2.56-3.68,4.45-3.99,7.39c-0.76,3.69-0.49,7.47-0.51,11.21
	c1.89,2.62,5.13,3.05,8.07,3.66c2.84,4.04-2.13,9.56,2.44,12.76c2.07,0.13,4.7-0.62,6.24,1.25c1.75,2.47,0.49,6.02-2.24,7.16
	c-4.54,1.79-9.58,1.16-14.24,2.5c-0.74,5.79-0.12,11.62-0.17,17.42c0.07,18.34-0.31,36.68-0.02,55.02
	c1.06,13.72,4.58,27.15,9.37,40.02c5.21,12.62,13.42,23.76,22.42,33.93c2.56,3.43,3.35,7.87,3.31,12.08
	c-0.14,6.39-0.08,12.78,0.06,19.18c3.75,2.39,3.47,7,3.67,10.91c0.16,1.51-0.79,3.13-2.36,3.39c-5.85,1.39-11.88,1.54-17.85,1.82
	c-21.93,2.15-44,1.83-66.01,1.49c-7.96-0.8-15.98-0.74-23.93-1.66c-6.22-0.01-12.4-0.79-18.29-2.84c-1.64-3.3-0.08-6.89-0.06-10.34
	c1.05-1.26,3.06-2.13,3.03-3.99c0.2-6.65,0.18-13.3,0.11-19.95c-0.02-3.55,1.06-7.15,3.28-9.95c20.1-22.36,31.21-52.14,32.38-82.05
	c-0.12-21.44,0.5099-42.89-0.03-64.31c-4.81-2.6-10.97-0.49-15.49-3.82c-1.94-1.28-2.15-3.82-1.56-5.88
	c1.59-2.99,5.92-0.36,7.64-3.22c2.64-2.9-0.28-6.73,0.93-9.9c1.39-3.86,7.07-1.67,8.36-5.72c0.63-3.72,0.35-7.55,0.21-11.3
	c0.08-2.43-2.17-3.91-3.04-5.98c-0.58-2.23,2.11-3.23,3.11-4.86c0.46-1.99,0.18-4.08-0.27-6.05c-2.01-7.5-5.51-14.68-10.74-20.46
	c-2.76-3.33-6.43-5.72-9.36-8.87c-2.45-2.5-2.85-7.02,0.0601-9.34c2.21-2.82,6-1.77,9.08-1.79c2.8-3.24,2.24-7.55,2.43-11.5
	c0.02-3.3,2.81-6.39,6.19-6.35c4.47-0.22,8.96,0.02,13.44-0.18c0.6-3.92,1.24-7.86,1.09-11.84c-3.4-1.44-6.86,0.65-10.3,0.26
	c-2.4901-0.78-2.18-3.81-2.2401-5.87c0.2401-7.88-0.2599-15.78,0.45-23.63c4.19-1.51,8.48,1.17,12.7-0.13
	C699.05,67.21,697.72,63.21,698.27,59.13z"/>
<path d="M856.85,80.9c4.54-1.55,9.48-2.14,14.2401-1.42c5.56,0.73,10.23,5.07,12.18,10.21c0.98,3.95,0.49,8.37-2.06,11.65
	c-3.11,3.61-2.3,8.66-1.63,12.98c2.7,0.77,5.94,0.87,7.91,3.15c2.63,3.34,3.91,7.6,6.78,10.75c5.54,2.54,12.93-2.31,17.76,2.37
	c3.73,2.55,3.91,8.87-0.04,11.29c-10.49,8.43-18.58,20.59-19.74,34.23c1.1,1.15,2.21,2.3,3.35,3.43
	c-0.12,3.14-3.04,5.32-3.0099,8.47c-0.19,3.4-0.08,6.81-0.22,10.21c0.74,0.67,1.49,1.33,2.26,2c2.91,0.03,6.27,1.52,6.89,4.65
	c-0.04,2.85-1.02,5.62-0.87,8.5c0.39,0.33,1.17,1,1.56,1.33c2.5099,0.03,5.79-0.81,7.41,1.77c2.1,2.64-0.42,6.23-3.08,7.3
	c-4.35,1.89-9.27,1.66-13.8,2.96c-0.5,2.71-0.54,5.47-0.45,8.22c0.29,17.63-0.07,35.27,0.25,52.9c0.91,7.03,0.33,14.2,1.72,21.18
	c2.76,17.1,9.23,33.63,19.01,47.95c2.53,3.68,4.56,7.76,7.72,10.98c2.63,2.77,4.91,5.9,6.74,9.27c1.9,4.33,0.93,9.18,1.13,13.76
	c0.24,4.33,0.19,8.68,0.41,13.02c3.88,2.82,4.1,8.17,2.92,12.42c-1.59,2.24-4.89,1.95-7.29,2.75
	c-11.88,1.88-23.97,1.48-35.9301,2.62c-11.65,0.42-23.31,0.12-34.97,0.2c-10.69,0.09-21.33-1.31-32.02-1.08
	c-6.76-1.07-13.86-0.02-20.31-2.66c-0.15-3.42-0.27-6.9,0.42-10.27c0.25-1.88,2.29-2.89,2.59-4.75c1-8.96-1.08-18.22,1.46-27
	c2.35-4.15,5.88-7.49,8.72-11.31c10.47-13.08,18.67-28.28,22.01-44.8c2.3-8.85,3.67-17.97,3.6-27.12
	c0.01-12.67,0.03-25.34-0.28-38.01c-0.47-9.02-0.34-18.06,0.4-27.04c-0.27-0.31-0.81-0.93-1.08-1.24
	c-5.24-1.42-11.76-0.09-15.83-4.41c-2.19-1.91-1.26-5.9,1.4-6.84c2.07-0.58,4.21-0.81,6.34-1.15c0.54-3.4,0.23-6.83,0.08-10.25
	c0.78-0.78,1.57-1.56,2.38-2.34c1.84-0.41,3.91-0.53,5.34-1.93c1.46-4.69,0.38-9.68,0.17-14.48c-0.98-0.99-1.96-1.98-2.93-2.97
	c-0.02-1.15-0.01-2.31,0.0099-3.45c4.95-1.71,3.1801-7.75,1.9901-11.49c-1.97-7.5-7.12-13.46-11.83-19.38
	c-3.26-3.81-9.86-6.01-9.38-11.94c-0.28-2.98,2.03-5.53,4.69-6.49c5.01-0.42,10.04,0.27,15.07,0.31c1.93-3.68,3.87-7.36,6.08-10.87
	c1.8-2.77,5.14-3.61,8.23-3.91c1.6-3.12,1.28-6.76,0.98-10.14c-1.01-3.47-3.99-6.22-4.05-10.01
	C847.45,89.05,851.19,82.89,856.85,80.9z"/>
<path d="M297.47,129.81c0.64-2.05,2.16-4.05,4.49-4.15c9.08-0.86,18.21,0.96,27,3.07c4.85,7.05,6.81,15.66,12.09,22.45
	c5.17,8.63,9.87,17.56,14.26,26.61c2.92,5.51,2.21,12.13,5.31,17.55c4.03,8.6,9.32,17.02,9.83,26.77c0.93,4.61-1.38,9.44,0.67,13.85
	c3.53,8.9,5.21,18.52,4.86,28.1c-0.13,2.86-0.96,5.69-2.42,8.15c0.92,9.93,1.32,19.9,0.5,29.84c-0.26,4.85,0.03,11.53-4.91,14.19
	c-8.11,2.08-16.62,1.82-24.85,3.27c-0.24,5.04,1.37,9.93,3.88,14.25c4.14,8.61,9.29,16.7,15.12,24.26
	c3.71,5.7,10.21,9.6,11.81,16.59c1.24,8.07,0.69,16.26,1.24,24.38c3.58,3.83,3.54,9.8,2.22,14.58c-10.27,2.84-20.96,3.45-31.56,3.56
	c-20.97,1.62-42.03,1.08-63.04,0.79c-11.04-1.18-22.28-0.42-33.1-3.33c-2.82-3.93-1.96-10.01,1.03-13.67
	c1.4-1.62,0.8-3.93,0.98-5.88c0.19-6.37-0.54-12.81,0.4-19.13c1.29-6.97,7.74-10.95,11.53-16.43c9.2-11.23,14.46-24.92,19.65-38.31
	c-0.35-0.6-1.06-1.79-1.42-2.39c-6.88-1.17-13.92-1.4-20.68-3.19c-1.67-5.74,0.77-11.45,2.05-16.99
	c5.05-19.12,9.94-38.29,14.42-57.55c1.36-5.52,2.17-11.15,2.05-16.84c-3.65-0.26-7.27,0.31-10.89,0.54
	c-8-0.59-15.98-1.39-23.97-1.99c-2.56-0.27-5.15-0.59-7.57-1.49c-3.14-1.79-1.99-5.88-2.97-8.78c-2.15-5.83-4.46-12.02-3.37-18.33
	c1.78-2.92,5.07-4.43,7.66-6.52c15.86-11.78,31.99-23.18,47.8-35.02c1.64-1.3,3.3-2.78,3.91-4.85
	C293.49,141.79,295.31,135.74,297.47,129.81z"/>
<path d="M1183,128.97c4.55-1.47,9.33-1.49,14.05-1.98c5.33,1.13,10.97-0.28,16.1399,1.74c2.65,6.06,4.1801,12.53,6.2401,18.81
	c0.6699,1.76,0.7999,3.98,2.46,5.17c19.34,14.29,39.4,27.6,58.58,42.12c0.86,8.24-2.7999,15.98-4.6,23.85
	c-1.54,3.87-6.3199,3.75-9.8,4.18c-7.38,0.12-14.71,1.35-22.1,1.11c-3.8099-0.18-7.61,0.34-11.15,1.77
	c-0.85,2.73-2.1899,5.53-1.48,8.45c1.65,8.7,4.03,17.23,6.0601,25.84c3.78,14.05,6.87,28.29,11.3099,42.15
	c0.99,3.22,2.3301,6.43,2.3201,9.87c0.2999,2.32-1.77,4.34-3.9501,4.65c-6.1799,1.39-12.6,1.23-18.75,2.75
	c2.61,17.11,13.17,31.48,23.1901,45.06c3.98,3.67,8.35,7.63,8.73,13.44c0.05,7.65-0.26,15.32-0.2,22.98
	c1.0399,1.01,2.11,2.01,3.2,3.01c0.4399,3.09,0.52,6.22,0.35,9.35c-14.48,4.12-29.72,3.61-44.64,3.92
	c-10.97,0.53-21.9299,0.25-32.8999,0.08c-11.3601-0.45-22.75,0.16-34.0601-1.21c-5.76-0.8-11.63-0.51-17.3199-1.74
	c-0.9301-3.88-0.4-7.91,0.23-11.79c0.7999-1.34,1.9299-2.45,2.77-3.78c0.49-4.59,0.11-9.22,0.22-13.83
	c0.09-4.28-0.6801-8.86,1.41-12.81c1.1799-2.87,3.46-5,5.47-7.28c8.6699-10.81,16.64-22.47,21.25-35.64
	c1.15-3.28,2.99-6.45,2.74-10.04c-6.4501-0.25-12.89-0.9-19.3101-1.47c-3.24-0.57-7.45-0.69-9.1699-4
	c-2.78-5.51-2.17-11.8-2.73-17.74c-0.66-7.38,0.5299-14.75,0.4199-22.12c-2.72-14.25-2.04-29.45,3.4501-42.99
	c0.95-3.49,0.7-7.18,1.2899-10.74c0.38-10.42,5.13-20.01,10.39-28.77c1.98-9.04,4.72-18.04,9.4401-26.07
	c3.7799-6.75,8.3099-13.04,12.36-19.63C1177.71,140.14,1180.1,134.43,1183,128.97z"/>
<path d="M1010.58,132.69c1.1-1.99,3.52-1.61,5.43-1.71c8.36,0.1,16.74-0.25,25.08,0.52c1.13,0.07,2.11,0.73,3.15,1.17
	c0.1801,0.64,0.53,1.92,0.71,2.57c-0.2,0.5-0.59,1.5-0.7899,2.01c-1.74,0.49-3.4701,0.99-5.1901,1.48c-0.37,0.54-1.12,1.6-1.49,2.13
	c1.24,4.57,5.76,6.68,9,9.65c5.29,5.02,11.47,9.2,15.8301,15.14c4.8899,6.87,6.7699,16.47,2.8999,24.24
	c-1.7799,4.77-5.7899,8.12-9.59,11.27c-0.1899,1.96-0.3199,3.93-0.42,5.9c0.78,0.75,1.5901,1.5,2.4,2.26
	c-0.01,0.59-0.0399,1.77-0.0499,2.36c-1.38,1.32-2.89,2.56-3.8501,4.23c-0.73,4.66-0.0199,9.4-0.23,14.1
	c0.3301,0.56,0.99,1.68,1.3201,2.24c2.2,0.7,4.39,1.5,6.46,2.58c0.33,0.98,0.71,1.96,1.08,2.94c-1.38,3.2-1.2,6.67-0.12,9.93
	c3.7001-0.26,10.8525-1.7,11.4775,2.6125c0.4554,3.1426-3.5275,4.4575-6.5675,5.6275c-4.3199,1.71-9.08,1.69-13.59,2.59
	c-0.8401,4.81-0.0601,9.68-0.1801,14.52c0.26,9.33-0.27,18.7,0.77,28c0.71,19.69,8.47,38.26,17.33,55.57
	c3.8,5.94,7.42,12.11,12.8501,16.75c1.47,2.75,3.4099,5.39,3.9199,8.54c0.49,5.79-0.14,11.63,0.3301,17.43
	c0.26,3.1,3.0499,5.13,3.9299,8c0.62,2.63,0.39,5.36,0.05,8.02c-5.3101,1.86-10.98,2.15-16.53,2.6c-30.9,2.41-62.01,2.29-92.94,0.16
	c-6.51-0.11-13.04-0.48-19.46-1.62c-0.95-3.48-0.5099-7.1-0.12-10.62c0.03-2.19,2.26-3.32,3.09-5.17c0.5-6.56-0.48-13.15,0.03-19.71
	c0.72-4.33,3.7401-7.74,6.57-10.91c5.12-5.69,9.3-12.14,13.23-18.69c4.44-7.27,6.38-15.65,9.52-23.48
	c3.52-12.65,6.06-25.74,5.78-38.92c0-10.15,0.34-20.32-0.13-30.47c-5.14-1.88-11.35-0.62-15.79-4.28
	c-1.8101-1.23-2.01-3.86-1.28-5.74c1.4-2.47,4.58-2.01,6.99-2.28c0.75-0.73,1.5-1.45,2.27-2.17c-0.17-3.27-2.95-7.52,0.31-10.02
	c2.09-1.95,6.47-0.81,7.03-4.39c0.79-4.89,0.26-9.88,0.45-14.81c-1.41-1.4-2.88-2.73-4.39-4.01c1.31-3.38,4.64-8.04,1.26-11.16
	c-7.19-4.82-11.7-13.77-10.26-22.45c0.4-6.18,3.8-11.7,8.05-16.03c6.28-5.37,12.24-11.13,18.69-16.32c1.7-1.15,2.22-3.24,3.04-5.02
	c-1.92-1.21-4.05-2-6.22-2.54C1011,135.92,1009.52,134.31,1010.58,132.69z"/>
<path d="M84.67,186.67l8.28-0.12c6.74-0.4,13.49-0.42,20.24-0.12c0.18,1.17,0.38,2.35,0.58,3.52c4.37-0.02,8.75,0.02,13.13,0.01
	c0.71-0.94,1.43-1.87,2.16-2.8c6.66-0.08,13.34-0.51,19.99,0.16c1.23,0.06,2.3,0.73,3.41,1.2c0.72,0.03,2.16,0.1,2.88,0.13
	c-0.2,5.82,0.18,11.64-0.03,17.45c-0.02,1.89-1.79,3.07-2.81,4.47c0.86,7.1,0.81,14.3,0.25,21.42c-0.05,3.06-1.91,5.95-4.76,7.12
	c-4.21,1.77-8.89,1.35-13.27,2.42c-0.33,0.44-0.97,1.34-1.29,1.79c-0.19,3.91-0.16,7.82-0.06,11.73c0.6,17.7-0.75,35.49,1.61,53.1
	c3.19,17.47,10.03,34.26,20.3,48.77c4.17,6.82,11.8,11.69,13.05,20.09c0.61,7.32-0.67,14.78,0.6,22.04c3.73,3.82,3.89,9.27,3.6,14.3
	c-7.09,3.06-14.93,2.48-22.43,3.44c-8.05,0.13-16.01,1.61-24.08,1.23c-20.36,0.82-40.72,0.44-61.07-0.21
	c-5.66-0.65-11.32-1.3-16.98-1.89c-2.26-0.3-4.96-0.63-6.28-2.75c-0.33-4.34-0.19-9.04,2.95-12.39c0.81-7.25-0.25-14.58,0.3-21.85
	c0.35-3.98,2.54-7.37,4.76-10.54c2.78-2.77,5.56-5.6,7.42-9.1c1.26-2.79,3.02-5.32,4.59-7.93c11.77-19.53,18.75-42.39,17.72-65.3
	c-0.04-14.48,0.2-28.96,0.09-43.44c-5.52-2.22-12.4-0.77-17.06-5.12c-3.7-4.23-2.1-10.4-2.51-15.52
	c-0.61-5.43,2.85-11.97-1.91-16.25c-0.12-5.64,0.06-11.29-0.12-16.94c4.14-1.64,8.71-0.94,13.06-1.05
	c4.21-0.31,7.79,2.52,12.01,2.26C83.55,188.89,84.11,187.78,84.67,186.67z"/>
<path d="M1409.6543,191.1185c4.1646,0.2559,7.6976-2.5298,11.8524-2.2247c4.2928,0.1083,8.803-0.5808,12.8887,1.0336
	c-0.1777,5.5617,0,11.1234-0.1185,16.6753c-4.6975,4.2131-1.2828,10.6509-1.8849,15.996c-0.4047,5.04,1.1744,11.1136-2.4771,15.2775
	c-4.5989,4.282-11.3885,2.8547-16.8362,5.04c-0.1085,14.2537,0.1283,28.5074,0.0889,42.7611
	c-1.0165,22.5519,5.8718,45.0547,17.4874,64.2794c1.5494,2.5692,3.2864,5.0597,4.5298,7.8061
	c1.8356,3.4453,4.5791,6.231,7.3226,8.9578c2.1909,3.1204,4.3522,6.4575,4.6976,10.3752c0.5427,7.1564-0.5033,14.3718,0.296,21.5085
	c3.0988,3.2977,3.2369,7.9242,2.9113,12.1964c-1.3026,2.0869-3.9672,2.4117-6.1975,2.707
	c-5.5858,0.5808-11.1715,1.2206-16.7573,1.8604c-20.083,0.6398-40.1758,1.0139-60.2687,0.2067
	c-7.9641,0.3741-15.8197-1.0828-23.7642-1.2108c-7.4016-0.945-15.1387-0.3741-22.1356-3.3862
	c-0.2863-4.9514-0.1283-10.3162,3.5527-14.0765c1.2533-7.1465-0.0099-14.4899,0.5922-21.6955
	c1.2335-8.2687,8.7634-13.0626,12.8788-19.776c10.1353-14.2833,16.8855-30.8109,20.0336-48.0078
	c2.3291-17.3347,0.9968-34.8467,1.5889-52.2701c0.0988-3.8489,0.1283-7.6978-0.0592-11.5467
	c-0.3158-0.443-0.9474-1.3289-1.2731-1.762c-4.3225-1.0533-8.941-0.6398-13.0958-2.3822c-2.8126-1.1517-4.6482-3.9965-4.6976-7.0087
	c-0.5526-7.0087-0.6019-14.0962,0.2468-21.0852c-1.0067-1.3781-2.7534-2.5397-2.7732-4.4001
	c-0.2073-5.7192,0.1677-11.4482-0.0295-17.1773c0.7104-0.0295,2.1316-0.0984,2.8422-0.128
	c1.0955-0.4627,2.1514-1.1222,3.3652-1.1812c6.5627-0.6595,13.1552-0.2363,19.7278-0.1575
	c0.7203,0.9155,1.4309,1.8309,2.1316,2.7562c4.3226,0.0098,8.6451-0.0295,12.9578-0.0099c0.1974-1.1517,0.3948-2.3133,0.5724-3.465
	c6.6615-0.2953,13.3229-0.2756,19.9745,0.1181l8.1714,0.1181C1408.549,188.9332,1409.1016,190.0258,1409.6543,191.1185z"/>
<path d="M586.1699,405.89C586.1,403.78,583.61,402.9,583.23,400.96c-0.9399-9.21,2.72-20.31-4.49-27.78
	c-10.61-12.19-19.3301-26.29-23.8101-41.9c-4.3499-11.94-5.5898-24.66-6.3899-37.24c0.11-11.78,0.01-23.55-0.01-35.33
	c6.02-1.67,13.0601-0.7,18.12-4.99c-0.14-1.58,0.41-3.4-0.63-4.77c-1.55-2.4-4.8201-1.9-7.25-2.54
	c-0.54-0.88-1.0701-1.76-1.6001-2.64c0.3901-2.91,2.4102-6.3,0.1702-8.9c-1.3601-2.18-4.27-1.85-6.3201-2.9
	c-3.1001-2.31-1.14-6.67-1.5601-9.94c-0.4399-3.84,0.42-7.96,4.01-10.04c0.0901-0.95,0.1801-1.89,0.28-2.84
	c-2.0601-2-2.78-4.67-2.37-7.47c4.1801-3.46,8.4301-7.2,10.25-12.5c3.58-7.33,1.4401-15.88-2.2999-22.67
	c-4.26-5.89-10.25-10.15-15.3501-15.24c-3.52-3.63-8.63-6.13-10.29-11.23c3-2.21,8.24-2.29,8.1501-7.19
	c-3.9353-2.8415-9.0225-1.4072-13.5334-1.85h-18.8206c-1.3071,0.143-2.4548,0.5644-3.076,1.96c-0.7201,4.24,3.99,5.15,7.0499,5.84
	c0.14,0.56,0.42,1.67,0.55,2.22c-6.09,7.22-14.15,12.48-20.88,19.08c-8.04,6.71-12.3,18.7-7.93,28.61
	c2.01,5.41,6.69,9.05,10.4999,13.14c0.3,2.99-1.5999,5.23-3.21,7.49c-0.5699,2.47,2.73,3.41,4.15,4.88
	c0.1801,4.91,0.28,9.83,0.13,14.7401c0.15,1.75-1.5801,2.6299-2.5901,3.74c-1.7799,0.15-4.1299-0.4-5.2899,1.37
	c-2.5,2.85,0.35,6.6-0.28,9.87c-1.3,2.52-4.65,1.58-6.93,2.38c-2.77,0.44-2.31,3.74-2.53,5.81c3.88,6,11.63,4.33,17.52,6.34
	c-0.1,25.14,1.0299,51.15-8.0601,75.06c-1.5099,5.93-3.72,11.73-7.22,16.78c-4.69,8.08-9.79,16.04-16.39,22.72
	c-2.15,2.52-4.23,5.49-4.29,8.94c-0.19,6.47,0.3,12.97-0.32,19.43c-3.84,2.67-3.63,7.58-4,11.7401c0.34,0.58,1.01,1.75,1.35,2.33
	c6.6801,2.56,13.98,2.21,20.9901,2.8c21.36,2.47,42.8799,1.64,64.34,1.67c12.99-1.03,26.0898-0.84,38.98-2.98
	c1.99-0.1,3.5-1.36,4.8199-2.72C586.64,411.45,586.55,408.65,586.1699,405.89z"/>
</svg>
