<svg data-v-423bf9ae="" xmlns="http://www.w3.org/2000/svg" viewBox="0 0 239 90" class="iconLeft"><!----><!----><!----><g data-v-423bf9ae="" id="c450b1af-9df5-430d-9432-08bb01ec98cb" fill="black" transform="matrix(6.849314889533817,0,0,6.849314889533817,108.82781615528388,-27.191779628080113)"><path d="M6.78 12.61L6.78 12.61L6.78 12.61Q6.59 12.77 6.31 12.86L6.31 12.86L6.31 12.86Q6.02 12.95 5.64 12.95L5.64 12.95L5.64 12.95Q5.14 12.95 4.81 12.82L4.81 12.82L4.81 12.82Q4.48 12.70 4.38 12.39L4.38 12.39L4.38 12.39Q3.99 11.16 3.74 10.40L3.74 10.40L3.74 10.40Q3.49 9.63 3.35 9.06L3.35 9.06L3.28 9.06L3.28 9.06Q3.23 9.88 3.21 10.56L3.21 10.56L3.21 10.56Q3.19 11.24 3.19 11.89L3.19 11.89L3.19 11.89Q3.18 12.53 3.16 13.19L3.16 13.19L3.16 13.19Q3.14 13.85 3.09 14.64L3.09 14.64L3.09 14.64Q2.91 14.71 2.62 14.76L2.62 14.76L2.62 14.76Q2.32 14.81 2.03 14.81L2.03 14.81L2.03 14.81Q1.41 14.81 1.07 14.62L1.07 14.62L1.07 14.62Q0.73 14.42 0.73 13.90L0.73 13.90L1.13 6.76L1.13 6.76Q1.25 6.58 1.62 6.37L1.62 6.37L1.62 6.37Q2.00 6.16 2.69 6.16L2.69 6.16L2.69 6.16Q3.43 6.16 3.85 6.39L3.85 6.39L3.85 6.39Q4.27 6.62 4.47 7.14L4.47 7.14L4.47 7.14Q4.59 7.48 4.74 7.91L4.74 7.91L4.74 7.91Q4.89 8.34 5.03 8.81L5.03 8.81L5.03 8.81Q5.18 9.27 5.32 9.72L5.32 9.72L5.32 9.72Q5.46 10.18 5.57 10.54L5.57 10.54L5.64 10.54L5.64 10.54Q5.98 9.37 6.31 8.27L6.31 8.27L6.31 8.27Q6.65 7.17 6.93 6.43L6.93 6.43L6.93 6.43Q7.14 6.31 7.47 6.24L7.47 6.24L7.47 6.24Q7.80 6.16 8.20 6.16L8.20 6.16L8.20 6.16Q8.89 6.16 9.32 6.36L9.32 6.36L9.32 6.36Q9.76 6.57 9.83 6.94L9.83 6.94L9.83 6.94Q9.88 7.22 9.95 7.81L9.95 7.81L9.95 7.81Q10.01 8.39 10.08 9.11L10.08 9.11L10.08 9.11Q10.15 9.84 10.22 10.65L10.22 10.65L10.22 10.65Q10.29 11.47 10.35 12.22L10.35 12.22L10.35 12.22Q10.42 12.96 10.46 13.59L10.46 13.59L10.46 13.59Q10.50 14.21 10.51 14.55L10.51 14.55L10.51 14.55Q10.28 14.69 10.02 14.75L10.02 14.75L10.02 14.75Q9.76 14.81 9.35 14.81L9.35 14.81L9.35 14.81Q8.82 14.81 8.46 14.63L8.46 14.63L8.46 14.63Q8.09 14.45 8.06 13.92L8.06 13.92L8.06 13.92Q7.98 12.39 7.96 11.17L7.96 11.17L7.96 11.17Q7.94 9.95 7.90 9.13L7.90 9.13L7.83 9.13L7.83 9.13Q7.69 9.67 7.42 10.50L7.42 10.50L7.42 10.50Q7.15 11.33 6.78 12.61ZM18.93 11.30L18.93 11.30L18.93 11.30Q18.93 12.17 18.66 12.85L18.66 12.85L18.66 12.85Q18.40 13.52 17.91 13.99L17.91 13.99L17.91 13.99Q17.43 14.45 16.76 14.69L16.76 14.69L16.76 14.69Q16.09 14.92 15.26 14.92L15.26 14.92L15.26 14.92Q14.43 14.92 13.76 14.67L13.76 14.67L13.76 14.67Q13.09 14.42 12.61 13.95L12.61 13.95L12.61 13.95Q12.12 13.48 11.86 12.81L11.86 12.81L11.86 12.81Q11.59 12.14 11.59 11.30L11.59 11.30L11.59 11.30Q11.59 10.47 11.86 9.80L11.86 9.80L11.86 9.80Q12.12 9.13 12.61 8.66L12.61 8.66L12.61 8.66Q13.09 8.19 13.76 7.94L13.76 7.94L13.76 7.94Q14.43 7.69 15.26 7.69L15.26 7.69L15.26 7.69Q16.09 7.69 16.76 7.95L16.76 7.95L16.76 7.95Q17.43 8.20 17.91 8.67L17.91 8.67L17.91 8.67Q18.40 9.14 18.66 9.81L18.66 9.81L18.66 9.81Q18.93 10.49 18.93 11.30ZM14.03 11.30L14.03 11.30L14.03 11.30Q14.03 12.15 14.36 12.61L14.36 12.61L14.36 12.61Q14.69 13.06 15.27 13.06L15.27 13.06L15.27 13.06Q15.86 13.06 16.18 12.60L16.18 12.60L16.18 12.60Q16.49 12.14 16.49 11.30L16.49 11.30L16.49 11.30Q16.49 10.46 16.17 10.00L16.17 10.00L16.17 10.00Q15.85 9.55 15.26 9.55L15.26 9.55L15.26 9.55Q14.67 9.55 14.35 10.00L14.35 10.00L14.35 10.00Q14.03 10.46 14.03 11.30Z"></path></g><!----><g data-v-423bf9ae="" id="c94beb68-f913-47b3-b6b1-4a6c0120132d" transform="matrix(3.4193810667739166,0,0,3.4193810667739166,-7.430094651260973,-8.906076666072543)" stroke="none" fill="black"><g data-name="Layer 2"><path d="M28.436 13.321a4.388 4.388 0 0 1-.754-1.117 4.573 4.573 0 0 1-.059-1.417 4.273 4.273 0 0 0-.523-2.852 4.293 4.293 0 0 0-2.568-1.385 4.512 4.512 0 0 1-1.313-.486 4.436 4.436 0 0 1-.85-1.084 4.319 4.319 0 0 0-2.129-2.032 4.25 4.25 0 0 0-2.842.383A4.61 4.61 0 0 1 16 3.72a4.61 4.61 0 0 1-1.4-.389 4.271 4.271 0 0 0-2.843-.383 4.317 4.317 0 0 0-2.125 2.031 4.421 4.421 0 0 1-.851 1.085 4.512 4.512 0 0 1-1.313.486A4.3 4.3 0 0 0 4.9 7.934a4.277 4.277 0 0 0-.523 2.853 4.565 4.565 0 0 1-.059 1.413 4.374 4.374 0 0 1-.754 1.118A4.342 4.342 0 0 0 2.28 16a4.342 4.342 0 0 0 1.284 2.679 4.388 4.388 0 0 1 .754 1.121 4.575 4.575 0 0 1 .059 1.417 4.273 4.273 0 0 0 .523 2.848 4.293 4.293 0 0 0 2.568 1.385 4.512 4.512 0 0 1 1.313.486 4.436 4.436 0 0 1 .85 1.084 4.319 4.319 0 0 0 2.129 2.032 2.575 2.575 0 0 0 .8.123 5.858 5.858 0 0 0 2.041-.506A4.61 4.61 0 0 1 16 28.28a4.61 4.61 0 0 1 1.4.389 4.256 4.256 0 0 0 2.843.383 4.317 4.317 0 0 0 2.127-2.031 4.444 4.444 0 0 1 .851-1.085 4.512 4.512 0 0 1 1.313-.486 4.3 4.3 0 0 0 2.566-1.384 4.277 4.277 0 0 0 .523-2.853 4.567 4.567 0 0 1 .059-1.416 4.374 4.374 0 0 1 .754-1.118A4.342 4.342 0 0 0 29.72 16a4.342 4.342 0 0 0-1.284-2.679zm-1.551 4.1a5.658 5.658 0 0 0-1.106 1.762 5.879 5.879 0 0 0-.153 2.135 3.057 3.057 0 0 1-.144 1.576 3.057 3.057 0 0 1-1.467.629 5.807 5.807 0 0 0-1.974.8 5.761 5.761 0 0 0-1.353 1.617c-.349.541-.71 1.1-1.065 1.214a3.077 3.077 0 0 1-1.512-.348A6.023 6.023 0 0 0 16 26.28a6.023 6.023 0 0 0-2.111.521 3.114 3.114 0 0 1-1.511.348c-.357-.115-.718-.674-1.067-1.215a5.767 5.767 0 0 0-1.352-1.616 5.807 5.807 0 0 0-1.974-.8 3.047 3.047 0 0 1-1.467-.63 3.051 3.051 0 0 1-.144-1.575 5.886 5.886 0 0 0-.153-2.136 5.665 5.665 0 0 0-1.106-1.761c-.41-.505-.835-1.026-.835-1.417s.425-.912.835-1.417a5.658 5.658 0 0 0 1.106-1.762 5.879 5.879 0 0 0 .153-2.135 3.057 3.057 0 0 1 .144-1.575 3.057 3.057 0 0 1 1.467-.629 5.807 5.807 0 0 0 1.974-.8 5.761 5.761 0 0 0 1.353-1.617c.349-.541.71-1.1 1.065-1.214a.587.587 0 0 1 .185-.026 4.587 4.587 0 0 1 1.327.374A6.023 6.023 0 0 0 16 5.72a6.023 6.023 0 0 0 2.111-.52 3.108 3.108 0 0 1 1.511-.348c.357.115.718.674 1.067 1.215a5.767 5.767 0 0 0 1.352 1.616 5.807 5.807 0 0 0 1.974.8 3.047 3.047 0 0 1 1.467.63 3.051 3.051 0 0 1 .144 1.575 5.886 5.886 0 0 0 .153 2.136 5.665 5.665 0 0 0 1.106 1.761c.41.5.835 1.026.835 1.417s-.42.91-.835 1.415z"></path><path d="M15.9 9h-.2c-2.4.081-5.21 1.846-5.567 4.557a4.55 4.55 0 0 0 2.431 4.731c1.665.738 4.125.348 4.989-1.392a3.32 3.32 0 0 0 .042-2.634 1 1 0 0 0-1.877.693 1.469 1.469 0 0 1 .043 1.053 2.021 2.021 0 0 1-2.388.452 2.612 2.612 0 0 1-1.258-2.643c.214-1.619 2.062-2.764 3.654-2.819a4.591 4.591 0 0 1 3.71 2.268 4.9 4.9 0 0 1-.3 5.157 5.709 5.709 0 0 1-6.809 1.645 1 1 0 0 0-.744 1.856 8.449 8.449 0 0 0 3.149.612 7.306 7.306 0 0 0 6.042-2.967 6.929 6.929 0 0 0 .389-7.3C21.011 11.927 19.217 9 15.9 9z"></path></g></g><!----></svg>